<svg xmlns="http://www.w3.org/2000/svg" width="53" height="42"><path d="M34.6 3c4.1 0 7.5 17.4 7.5 38.9h6c0-23.2-6-41.9-13.5-41.9-4.2 0-8 5.6-10.5 14.5C21.7 5.7 17.9 0 13.7 0 6.2 0 .2 18.8.2 41.9h6C6.2 20.4 9.5 3 13.7 3c4.1 0 7.5 16.1 7.5 35.9h6C27.1 19.1 30.5 3 34.6 3zm16.5 35.9c.8 0 1.5.6 1.5 1.5s-.7 1.5-1.5 1.5-1.5-.6-1.5-1.5c0-.8.7-1.5 1.5-1.5zm0 2.8c.7 0 1.2-.6 1.2-1.3 0-.7-.5-1.3-1.2-1.3s-1.2.6-1.2 1.3c0 .8.5 1.3 1.2 1.3zm-.6-2.1h.7c.4 0 .6.2.6.5s-.2.4-.5.5l.5.8h-.3l-.5-.8h-.3v.8h-.3v-1.8h.1zm.3.7h.3c.2 0 .5 0 .5-.3 0-.2-.2-.3-.4-.3h-.4v.6z" fill="#FDC606"/></svg>